HIERARCHY
ROOT root
{
	OFFSET 0.000000 0.000000 0.000000
	CHANNELS 6 Xposition Yposition Zposition Zrotation Yrotation Xrotation
	JOINT lhip
	{
		OFFSET 0.058581 -0.082280 -0.017664
		CHANNELS 3 Zrotation Yrotation Xrotation
		JOINT lknee
		{
			OFFSET 0.043451 -0.386469 0.008037
			CHANNELS 3 Zrotation Yrotation Xrotation
			JOINT lankle
			{
				OFFSET -0.014790 -0.426874 -0.037428
				CHANNELS 3 Zrotation Yrotation Xrotation
				JOINT ltoe
				{
					OFFSET 0.041054 -0.060286 0.122042
					CHANNELS 3 Zrotation Yrotation Xrotation
					End Site
					{
						OFFSET 0.000000 0.000000 0.000000
					}
				}
			}
		}
	}
	JOINT rhip
	{
		OFFSET -0.060310 -0.090513 -0.013543
		CHANNELS 3 Zrotation Yrotation Xrotation
		JOINT rknee
		{
			OFFSET -0.043257 -0.383688 -0.004843
			CHANNELS 3 Zrotation Yrotation Xrotation
			JOINT rankle
			{
				OFFSET 0.019056 -0.420046 -0.034562
				CHANNELS 3 Zrotation Yrotation Xrotation
				JOINT rtoe
				{
					OFFSET -0.034840 -0.062106 0.130323
					CHANNELS 3 Zrotation Yrotation Xrotation
					End Site
					{
						OFFSET 0.000000 0.000000 0.000000
					}
				}
			}
		}
	}
	JOINT lowerback
	{
		OFFSET 0.004439 0.124404 -0.038385
		CHANNELS 3 Zrotation Yrotation Xrotation
		JOINT upperback
		{
			OFFSET 0.004488 0.137956 0.026820
			CHANNELS 3 Zrotation Yrotation Xrotation
			JOINT chest
			{
				OFFSET -0.002265 0.056032 0.002855
				CHANNELS 3 Zrotation Yrotation Xrotation
				JOINT lowerneck
				{
					OFFSET -0.013390 0.211636 -0.033468
					CHANNELS 3 Zrotation Yrotation Xrotation
					JOINT upperneck
					{
						OFFSET 0.010113 0.088937 0.050410
						CHANNELS 3 Zrotation Yrotation Xrotation
						End Site
						{
							OFFSET 0.000000 0.000000 0.000000
						}
					}
				}
				JOINT lclavicle
				{
					OFFSET 0.071702 0.114000 -0.018898
					CHANNELS 3 Zrotation Yrotation Xrotation
					JOINT lshoulder
					{
						OFFSET 0.122921 0.045205 -0.019046
						CHANNELS 3 Zrotation Yrotation Xrotation
						JOINT lelbow
						{
							OFFSET 0.255332 -0.015649 -0.022946
							CHANNELS 3 Zrotation Yrotation Xrotation
							JOINT lwrist
							{
								OFFSET 0.265709 0.012698 -0.007375
								CHANNELS 3 Zrotation Yrotation Xrotation
								End Site
								{
									OFFSET 0.000000 0.000000 0.000000
								}
							}
						}
					}
				}
				JOINT rclavicle
				{
					OFFSET -0.082954 0.112472 -0.023707
					CHANNELS 3 Zrotation Yrotation Xrotation
					JOINT rshoulder
					{
						OFFSET -0.113228 0.046853 -0.008472
						CHANNELS 3 Zrotation Yrotation Xrotation
						JOINT relbow
						{
							OFFSET -0.260127 -0.014369 -0.031269
							CHANNELS 3 Zrotation Yrotation Xrotation
							JOINT rwrist
							{
								OFFSET -0.269108 0.006794 -0.006027
								CHANNELS 3 Zrotation Yrotation Xrotation
								End Site
								{
									OFFSET 0.000000 0.000000 0.000000
								}
							}
						}
					}
				}
			}
		}
	}
}
MOTION
Frames: 8
Frame Time: 0.033333
2.363511 0.712105 0.990034 -89.412529 0.396010 81.269223 0.155077 0.821729 3.913309 -0.980904 -5.873963 8.659351 0.992287 11.452320 -15.228154 0.000000 -0.000000 0.000000 1.313789 -0.027819 1.379632 -3.335515 0.573025 13.512887 2.084170 -10.301482 -19.303521 0.000000 -0.000000 0.000000 -2.356984 1.163730 8.907405 0.396283 -3.633734 5.063790 1.134789 -1.654462 1.378431 2.151873 3.699463 -8.226380 2.838480 -1.676728 -6.304891 -23.319423 -8.488055 5.223468 -57.824141 -7.043985 11.925186 0.005434 -20.647504 15.585264 2.726534 -2.088272 -4.196948 20.944001 11.206836 2.147085 59.079650 6.168048 20.136423 -0.507368 29.259608 22.247253 -2.138158 1.444153 6.615443 
2.364999 0.712511 0.989717 -89.293596 0.420490 81.556130 0.162074 0.688333 3.443209 -0.980560 -5.933803 8.720522 0.923597 11.612658 -15.131185 0.000000 -0.000000 0.000000 1.380802 0.006766 0.798277 -3.351581 0.539130 13.858411 1.982843 -10.466438 -19.280184 0.000000 -0.000000 0.000000 -1.993339 1.044037 9.100161 0.210997 -3.397605 4.657064 0.985188 -1.517411 1.271556 2.121313 3.272241 -8.420381 2.830977 -1.676533 -6.396561 -23.982184 -8.654640 5.233997 -57.177642 -7.248581 11.896843 -0.291177 -20.056802 15.607266 2.250379 -1.830828 -3.976992 20.875093 11.358647 2.220326 58.945503 5.919278 20.663877 -0.398270 28.589602 23.778375 -1.720158 1.548289 8.019598 
2.366599 0.712632 0.989887 -89.206660 0.247908 81.941249 -0.160713 0.611041 2.957479 -0.743862 -6.013815 8.558192 1.334512 11.881756 -15.126074 0.000000 -0.000000 0.000000 1.321272 0.297448 0.145647 -3.486718 0.416113 14.111418 2.123905 -10.541698 -19.360452 0.000000 -0.000000 0.000000 -1.722726 1.018242 9.627733 -0.113581 -2.933705 3.442120 0.655473 -1.331471 1.165710 2.285667 2.919544 -8.394181 2.912445 -1.926805 -6.239592 -24.628486 -8.348774 4.693708 -56.502850 -7.447580 12.085356 -0.419874 -19.361021 16.265575 1.815627 -1.744823 -1.998556 21.034248 11.002597 1.934111 59.082139 5.349362 21.010268 0.058811 27.579680 24.324024 -1.282197 1.658090 8.118526 
2.366780 0.712282 0.989849 -88.828374 0.002384 82.732433 -0.599868 0.219820 2.298610 -0.485229 -6.026694 7.938319 1.658326 11.868056 -14.672677 0.000000 -0.000000 0.000000 1.168403 0.359437 -0.692123 -3.687516 0.303453 14.102838 2.014076 -10.580070 -19.469027 0.000000 -0.000000 0.000000 -1.621125 1.017443 8.752303 -0.417939 -2.700450 3.328926 0.219295 -1.135555 0.883285 2.329685 2.831974 -8.445089 3.057904 -2.256099 -5.877854 -24.925488 -7.814153 4.249079 -56.125339 -8.026105 12.209310 -0.203087 -19.073369 16.325108 -0.293778 -1.304850 -1.158185 21.190225 10.436768 1.825365 59.359376 4.792957 21.346622 0.414992 26.593895 25.473723 2.253561 0.709257 7.989374 
2.366678 0.712460 0.989943 -88.582594 -0.104640 82.941135 -0.819694 0.080498 2.276230 -0.261956 -6.269271 7.414355 1.926066 11.930755 -14.515922 0.000000 -0.000000 0.000000 1.072028 0.292876 -0.858568 -3.670621 0.196167 13.988221 1.947894 -10.581924 -19.564360 0.000000 -0.000000 0.000000 -1.659240 1.114298 8.510647 -0.537197 -2.649467 3.461002 0.162627 -1.173303 0.731175 2.268900 2.589067 -8.544590 3.230749 -2.397115 -6.306000 -25.019058 -7.839107 4.281186 -55.973619 -8.242915 12.474243 0.035603 -19.500103 16.210320 -0.296841 -1.412354 -1.520842 21.367237 10.494232 1.930514 59.409957 4.542335 21.356078 0.346206 26.434146 25.071806 2.772383 0.557463 7.352807 
2.366917 0.712618 0.989698 -88.104719 -0.215132 83.029919 -0.945663 -0.035539 2.193732 -0.236611 -6.360014 7.195066 1.745792 11.602130 -14.165111 0.000000 -0.000000 0.000000 1.087254 0.353517 -1.105202 -3.764438 0.062354 14.312813 1.676746 -10.765298 -19.304381 0.000000 -0.000000 0.000000 -1.919352 1.128065 8.299903 -0.499744 -2.719945 3.972291 0.218878 -1.275404 0.710923 2.225375 2.505158 -9.256834 3.350343 -2.435305 -7.288265 -24.864259 -8.131836 4.364658 -56.048755 -8.797206 12.649997 0.301208 -20.107631 15.881148 0.042749 -1.983013 -2.132720 21.285063 10.551580 2.061401 59.400977 4.712833 21.274184 0.489143 26.904157 24.469536 2.984649 0.760112 5.907005 
2.367733 0.713071 0.989171 -87.010051 -0.062831 82.862216 -0.814779 -0.313698 1.905897 -0.295319 -6.853805 7.686662 1.387990 11.220744 -14.232831 0.000000 -0.000000 0.000000 1.242628 0.139181 -1.028877 -3.716103 -0.403887 14.608877 1.436357 -11.218121 -19.168489 0.000000 -0.000000 0.000000 -2.062653 0.891085 8.849779 -0.322613 -3.286386 4.124797 0.488878 -1.526456 0.673304 2.161933 2.474128 -10.309896 3.385336 -2.334448 -7.847418 -24.632743 -8.937133 4.719662 -56.241074 -8.887879 12.661487 0.287131 -20.834822 16.022931 0.649903 -2.237404 -2.539819 21.202986 11.127369 2.254772 59.150852 4.749221 21.091381 0.515854 27.373810 24.464405 2.378940 0.945394 5.925574 
2.369540 0.714012 0.988829 -86.319349 -0.002587 82.952449 -0.706913 -0.619835 1.333426 -0.468769 -7.111980 8.155454 0.780799 10.771710 -13.981511 0.000000 -0.000000 0.000000 1.449616 0.368469 -1.389717 -3.821502 -0.808408 15.004149 1.290994 -11.596054 -19.228770 0.000000 -0.000000 0.000000 -2.157618 0.807598 9.466429 -0.244856 -3.536750 3.870181 0.642331 -1.676027 0.720692 2.100054 2.535884 -11.265469 3.738808 -2.433484 -8.570637 -24.381858 -9.763301 4.762600 -56.356091 -9.339971 12.859577 0.051765 -20.544708 15.073050 0.184829 -2.709333 -3.900538 21.015130 11.560799 2.098363 59.216014 4.813627 21.160827 0.351889 27.383333 24.040317 2.507646 1.354273 5.780126 
